<svg width="20" height="20" viewBox="0 0 20 20" fill="none" xmlns="http://www.w3.org/2000/svg">
<path d="M13.4377 10.9373C11.0002 10.9373 9.06274 12.8748 9.06274 15.3123C9.06274 17.7498 11.0002 19.6873 13.4377 19.6873C15.8752 19.6873 17.8127 17.7498 17.8127 15.3123C17.8127 12.8748 15.8752 10.9373 13.4377 10.9373ZM15.0002 16.2498H13.1252C12.7502 16.2498 12.5002 15.9998 12.5002 15.6248V14.3748C12.5002 13.9998 12.7502 13.7498 13.1252 13.7498C13.5002 13.7498 13.7502 13.9998 13.7502 14.3748V14.9998H15.0002C15.3752 14.9998 15.6252 15.2498 15.6252 15.6248C15.6252 15.9998 15.3752 16.2498 15.0002 16.2498Z" fill="#888888"/>
<path d="M8.12524 15.3123C8.12524 12.3748 10.5002 9.99979 13.4377 9.99979C14.8752 9.99979 16.2502 10.5623 17.1877 11.5623V3.74979C17.1877 1.99979 15.8127 0.624786 14.0627 0.624786H4.06274C3.00024 0.624786 2.18774 1.43729 2.18774 2.49979V17.4998C2.18774 18.5623 3.00024 19.3748 4.06274 19.3748L9.93774 19.3123C8.81274 18.3748 8.12524 16.9373 8.12524 15.3123ZM5.56274 8.81923H9.06274C9.37524 8.81923 9.62524 9.06923 9.62524 9.44423C9.62524 9.81923 9.37524 10.0692 9.06274 10.0692H5.56274C5.25024 10.0692 5.00024 9.81923 5.00024 9.44423C5.00024 9.06923 5.25024 8.81923 5.56274 8.81923ZM5.00024 5.41645C5.00024 5.04145 5.25024 4.79145 5.62524 4.79145H12.8127C13.1877 4.79145 13.4377 5.04145 13.4377 5.41645C13.4377 5.79145 13.1877 6.04145 12.8127 6.04145H5.62524C5.25024 6.04145 5.00024 5.79145 5.00024 5.41645Z" fill="#888888"/>
</svg>
